<svg id="Layer_1" data-name="Layer 1" xmlns="http://www.w3.org/2000/svg" viewBox="0 0 990 394"><defs><style>.cls-1{fill:#020303;}.cls-2{fill:#68bee0;}.cls-3{fill:#96d48e;}.cls-4{fill:#96d58e;}.cls-5{fill:#87bf80;}.cls-6{fill:#5eaaca;}.cls-7{fill:#86be7f;}.cls-8{fill:#95d38d;}.cls-9{fill:#5da9c9;}.cls-10{fill:#66badc;}.cls-11{fill:#020304;}.cls-12{fill:#030506;}</style></defs><path class="cls-1" d="M508.83,388.47H478.9c-.55-1.27-1.72-.73-2.6-.81a190.51,190.51,0,0,1-94.65-36.06c-4.17-3-4.65-4.59-2.83-9.47,3.42-2.63,6.48-1.87,9.78.55a177.15,177.15,0,0,0,58,28.11c2.47.69,3.59.46,4.22-2.17,1.11-4.58,2.51-9.09,3.79-13.63a215.91,215.91,0,0,0,7-41.55c.74-9.82-3.55-16.79-12.12-21.29-6.71-3.53-14-5-21.41-6.21-8.76-1.4-17.65-1.19-26.44-2.19-13.95-1.58-19.72-10.41-15.7-23.92a70.56,70.56,0,0,1,3.8-9.32,41.19,41.19,0,0,0,3.51-10.59c.94-5.75-1.12-9.1-6.68-10.72-9.5-2.77-13.17-1.42-18.44,7.11-4.1,6.62-9.9,9.43-17.64,8.72-11.09-1-18.24-7.24-22.71-17-3.16-6.89-4.4-14.26-4.85-21.75-.79-13.3.31-26.41,4.77-39.05,2.53-7.16,8.24-10.87,15.77-10.85a23.72,23.72,0,0,1,23.27,22.29c.14,2.8.2,5.62,2,8.51.9-13.37.9-13.37,9.05-23.63a119.75,119.75,0,0,0,9-13.27c2.45-4.09,4-4.66,8.64-3.41,3.25,3.65,3.38,5.05.94,9.27a109.34,109.34,0,0,1-12.27,17.37c-3.27,3.74-4.76,7.7-3.84,12.66a14.47,14.47,0,0,1-.26,5.19c-1.5,7.75-9.52,11.11-16.13,6.79a17.54,17.54,0,0,1-6.94-9.46,34,34,0,0,1-1.46-9.19c-.31-5.42-3.18-9.06-8.09-11.08-5.32-2.18-8.4-.75-9.95,4.71a95.59,95.59,0,0,0-3.42,31.43c.42,8,1.51,15.89,6.16,22.78,3,4.5,7.32,6.49,12.7,6.54,4.7,0,5.75-3.83,7.52-6.81,3.1-5.19,7.21-9,13.34-9.81a36.56,36.56,0,0,1,19.09,2.29c8.53,3.58,13,11.6,11.65,20.83A51.35,51.35,0,0,1,400.06,255,48.66,48.66,0,0,0,396.15,265c-1,4.42.14,6.43,4.63,7.19a100.57,100.57,0,0,0,11.52,1c10.46.59,20.85,1.51,31,4.44,22.44,6.49,31.08,19.06,29.07,42.2-1.05,12.06-3.41,23.88-6,35.67-1.5,5.13-2.79,10.32-4.58,15.34-1,2.88-.15,3.42,2.5,3.85a183.16,183.16,0,0,0,59.79.15,178,178,0,0,0,44.47-13.37c1.37-.62,2.65-1,2.19-3.16a80.07,80.07,0,0,0-11-27.47c-4.23-8-10-14.85-15.54-21.87s-11.5-13.78-16.32-21.38c-11.36-17.93-10.58-39.2,2.22-55.9a70,70,0,0,1,27-21.32,124.18,124.18,0,0,1,35.76-10.21c20.07-2.55,39.16-1,54.31,14.76,6.22,6.81,14,10.82,22.82,13.21.7.19,1.45.45,2.1-.15,1-.9,1.28-8.45.31-9.53-4.19-4.7-6.88-10.27-9.41-15.95-2.76-6.21-5.17-12.59-8.78-18.39a65.85,65.85,0,0,0-9.64-16.34c-6.26-7.71-12.57-8.59-20.89-3.12-5.22,3.44-9.75,7.75-14.58,11.68-8.09,6.57-16.74,12.12-26.9,14.94-13.56,3.75-26.57-.6-34.33-11.12-11.57-15.69-6.65-46.42,20.17-52.86,11.12-2.68,22.47-3,33.77-3.47,5.86-.26,9.63-2.76,12.34-7.51,6.15-10.77,7.95-22.43,6.68-34.62a18,18,0,0,0-3-8.75c-.79-1.09-1.72-2.65-3.13-2.23-1.23.36-1,2.11-1.06,3.32-.28,3.78.73,7.43,1.11,11.14,1.27,12.18-6.48,24.17-17.62,27.22-17.8,4.87-33.54-8.66-31.81-27.3,1.41-15.18,7.68-28.46,15.82-41,2.63-4,2.69-4-1.73-6.37q-51.54-27-109.25-19.46a177.62,177.62,0,0,0-74.24,27.67c-2.58,1.68-3.34,2.75-1.29,5.57a112.4,112.4,0,0,1,7.76,12.76c10.48,19.38,14.39,39.64,7.83,61.22-1.52,5-2.8,5.85-8.13,5.5-3.24-2.22-3.8-5.07-2.63-8.78a60,60,0,0,0,2-27.34c-2.18-14.12-8.89-26.27-16.57-38-1.25-1.91-2.08-1.39-3.42-.3a163.66,163.66,0,0,0-24,23.5c-43,52.89-53.56,111.84-33,176.67,1.44,4.53,3.81,6.25,8.18,7a178.7,178.7,0,0,1,20.82,4.28c14.54,4.13,18.16,17.87,7.92,29a37.08,37.08,0,0,1-8,6.73c-2.24,1.36-2.62,2.4-.77,4.44,3.69,4,7.15,8.3,10.79,12.4,1.35,1.52,2.58,3,2.86,5.11a9,9,0,0,1-1.85,4.4c-3.39,2.14-6.17,1.49-8.9-1.43q-41-43.93-50.31-103.32c-.65-4.2-.34-8.58-2.09-12.6V181.2c1.16-.43.7-1.46.78-2.23a197.78,197.78,0,0,1,4.81-28.32C332.51,56.59,420.2-4.3,516.86,6.85,572.07,13.21,616,39.8,649.38,84.09c3.36,4.45,3.28,5.73-.13,10.19-4.2,1.21-7-.47-9.35-4a48.9,48.9,0,0,0-7.74-9.43c.13,1.66.21,2.76.29,3.85-.06,3.11.07,6.25-.22,9.34-1,11.17-3.74,21.84-10.48,31.08-4,5.45-9.11,9.18-16.11,9.65-5,.33-10,.48-14.92.88-8.3.68-16.7.89-24.52,4.27-13.84,6-17.63,26.25-6.79,36.36,6.26,5.83,13.59,6.09,21.3,3.69,10.25-3.19,18.35-9.82,26.36-16.58,4.86-4.09,9.64-8.29,15.49-11,9.59-4.43,18.82-3,26.64,4.07,1.1,1,2.18,2,3.27,3,9.6,12.28,15.38,26.67,22.15,40.57a6.13,6.13,0,0,0,.31-2.25,179.05,179.05,0,0,0-17.56-78.61c-2.3-4.83-1.6-7.15,2.71-9.49,4-.89,5.9,1.4,7.42,4.62,17.75,37.54,22.88,76.83,15.46,117.59-14.62,80.27-79.26,142.3-160.39,154.5C518,387.13,513.28,386.93,508.83,388.47ZM644.42,228c-2.16-2.06-4.43-4-6.47-6.18-6.11-6.46-13.78-9.57-22.41-10.73-14.64-2-28.7.8-42.59,5.13-12.86,4-24.17,10.44-32.92,20.89-7.64,9.14-10.41,19.54-8.1,31.34,1.69,8.64,6.61,15.47,11.87,22.11,8.88,11.22,18.15,22.13,25.77,34.29,4.69,8.52,9,17.23,11.06,26.8.63,2.91,1.4,3.18,4,1.67a183.23,183.23,0,0,0,54.18-48.07,175.61,175.61,0,0,0,30.31-62.81c.37-1.43,1.22-2.76-1.23-3.3C659.19,237.23,651.55,233.12,644.42,228ZM610.73,59.08c-5.05-4.38-10.21-8.07-15.38-11.77-1.74-1.24-2.47-.68-3.49.82a99.07,99.07,0,0,0-12.53,24.54c-1.87,5.69-3.5,11.48-2.72,17.57,1,7.63,5.75,11.59,13.85,11.7,6.56.09,11.43-4.31,12.73-11.32.64-3.41-.1-6.68-.44-10C601.9,72.32,601.69,64.22,610.73,59.08ZM332,275.21c2.49,4.55,4.58,8.59,6.87,12.51,1.66,2.84,3,7.76,5.57,7.73,3.62-.05,6.6-3.88,9.27-6.83a6.51,6.51,0,0,0,.46-.58c2.87-3.83,2.22-7.07-2.31-8.79C345.69,276.91,339.14,276.23,332,275.21Z"/><path class="cls-2" d="M644.53,167.79c-6.26-7.71-12.57-8.59-20.89-3.11-5.22,3.43-9.75,7.74-14.58,11.67-8.09,6.57-16.74,12.13-26.9,14.94-13.56,3.76-26.57-.6-34.33-11.12-11.57-15.68-6.65-46.42,20.17-52.86,11.12-2.68,22.47-3,33.77-3.47,5.86-.26,9.63-2.76,12.34-7.51,6.15-10.77,7.95-22.43,6.68-34.62a18,18,0,0,0-3-8.74c-.79-1.1-1.72-2.66-3.13-2.24-1.23.36-1,2.11-1.06,3.33-.28,3.77.73,7.42,1.11,11.13,1.27,12.18-6.48,24.17-17.62,27.22-17.8,4.88-33.54-8.65-31.81-27.3,1.41-15.18,7.68-28.46,15.82-41,2.63-4,2.69-4-1.73-6.36q-51.54-27-109.25-19.46a177.47,177.47,0,0,0-74.24,27.66c-2.58,1.68-3.34,2.75-1.29,5.58a111.39,111.39,0,0,1,7.76,12.75c10.48,19.38,14.39,39.64,7.83,61.23-1.52,5-2.8,5.84-8.13,5.5-1.4,5.62-4.81,10.42-6.54,15.91,3.25,3.66,3.38,5.05.94,9.27a108.88,108.88,0,0,1-12.27,17.37c-3.27,3.74-4.76,7.7-3.84,12.66a14.46,14.46,0,0,1-.26,5.19c-1.5,7.75-9.52,11.12-16.13,6.79a17.55,17.55,0,0,1-6.94-9.45,34.13,34.13,0,0,1-1.46-9.2c-.31-5.42-3.18-9.06-8.09-11.08-5.32-2.17-8.4-.75-9.95,4.71a95.62,95.62,0,0,0-3.42,31.43c.42,8,1.51,15.89,6.16,22.78,3,4.5,7.32,6.49,12.7,6.54,4.7,0,5.75-3.83,7.52-6.81,3.1-5.19,7.21-9,13.34-9.81a36.56,36.56,0,0,1,19.09,2.29c8.53,3.59,13,11.6,11.65,20.83A51.26,51.26,0,0,1,400.06,255,48.74,48.74,0,0,0,396.15,265c-1,4.41.14,6.43,4.63,7.19a105.29,105.29,0,0,0,11.52,1c10.46.58,20.85,1.5,31,4.43,22.44,6.49,31.08,19.06,29.07,42.2-1.05,12.06-3.41,23.88-6,35.67,27.61-.22,54.14-5.35,79.27-17.15a147,147,0,0,0,14.08-7.5c-4.23-8-10-14.85-15.54-21.88s-11.5-13.78-16.32-21.37c-11.36-17.94-10.58-39.21,2.22-55.9a69.87,69.87,0,0,1,27-21.32,123.86,123.86,0,0,1,35.76-10.21c20.07-2.55,39.16-1,54.31,14.75,2.67-2.35,2.48-5.78,3-8.81,1.27-6.91,2.12-13.89,3.19-20.84.07-.42.54-.77.82-1.16A66,66,0,0,0,644.53,167.79Zm-194-71.7a5.12,5.12,0,0,1-5.12,5,5,5,0,0,1-5.59-4,27.26,27.26,0,0,1,0-11.48c.61-3,2.86-4.3,5.87-4a5,5,0,0,1,4.86,4.78,43.57,43.57,0,0,1,0,4.85h0C450.6,92.85,450.73,94.48,450.57,96.09Zm88.09.08c-.15-1.61,0-3.24,0-4.86s-.13-3.25,0-4.85a5,5,0,0,1,4.8-4.85c3-.32,5.27,1,5.92,3.93a26.82,26.82,0,0,1,0,11.49c-.66,2.94-3,4.34-5.89,4A5.06,5.06,0,0,1,538.66,96.17Z"/><path class="cls-3" d="M402.05,131c-1.4,5.63-4.81,10.43-6.54,15.92-4.6-1.25-6.19-.68-8.64,3.41a119.75,119.75,0,0,1-9,13.27c-8.15,10.26-8.15,10.26-9.05,23.63-1.83-2.89-1.89-5.71-2-8.51a23.72,23.72,0,0,0-23.27-22.29c-7.53,0-13.24,3.69-15.77,10.85-4.46,12.64-5.56,25.75-4.77,39.05.45,7.49,1.69,14.86,4.85,21.75,4.47,9.74,11.62,15.95,22.71,17,7.74.71,13.54-2.1,17.64-8.72,5.27-8.53,8.94-9.88,18.44-7.11,5.56,1.62,7.62,5,6.68,10.72a41.19,41.19,0,0,1-3.51,10.59,70.56,70.56,0,0,0-3.8,9.32c-4,13.51,1.75,22.34,15.7,23.92,8.79,1,17.68.79,26.44,2.19,7.4,1.19,14.7,2.68,21.41,6.21,8.57,4.5,12.86,11.47,12.12,21.29a215.91,215.91,0,0,1-7,41.55c-3.7-.33-7.43-.47-11.1-1-20.63-3.08-40.46-8.79-59.06-18.37-6.17-3.18-12.18-6.67-18.26-10-.28-2.09-1.51-3.59-2.86-5.11-3.64-4.1-7.1-8.36-10.79-12.4-1.85-2-1.47-3.08.77-4.44a37.08,37.08,0,0,0,8-6.73c10.24-11.09,6.62-24.83-7.92-29a178.7,178.7,0,0,0-20.82-4.28c-4.37-.7-6.74-2.42-8.18-7-20.55-64.83-10-123.78,33-176.67a163.66,163.66,0,0,1,24-23.5c1.34-1.09,2.17-1.61,3.42.3,7.68,11.74,14.39,23.89,16.57,38a60,60,0,0,1-2,27.34C398.25,125.9,398.81,128.75,402.05,131Z"/><path class="cls-4" d="M569.57,324.84c-7.62-12.16-16.89-23.07-25.77-34.29-5.26-6.64-10.18-13.47-11.87-22.11-2.31-11.8.46-22.2,8.1-31.34,8.75-10.45,20.06-16.88,32.92-20.89,13.89-4.33,27.95-7.12,42.59-5.13,8.63,1.16,16.3,4.27,22.41,10.73,2,2.16,4.31,4.12,6.47,6.18-1,2.8-2,5.62-3,8.4A183.9,183.9,0,0,1,620.26,276a189.3,189.3,0,0,1-34.17,37C580.9,317.34,575.58,321.61,569.57,324.84Z"/><path class="cls-5" d="M569.57,324.84c6-3.23,11.33-7.5,16.52-11.85a189.3,189.3,0,0,0,34.17-37,183.9,183.9,0,0,0,21.14-39.61c1.06-2.78,2-5.6,3-8.4,7.13,5.13,14.77,9.24,23.43,11.14,2.45.54,1.6,1.87,1.23,3.3a175.61,175.61,0,0,1-30.31,62.81,183.23,183.23,0,0,1-54.18,48.07c-2.56,1.51-3.33,1.24-4-1.67C578.55,342.07,574.26,333.36,569.57,324.84Z"/><path class="cls-3" d="M652.47,159.51c-1.09-1-2.17-2-3.27-3-7.82-7.09-17.05-8.5-26.64-4.07-5.85,2.7-10.63,6.9-15.49,11-8,6.76-16.11,13.39-26.36,16.58-7.71,2.4-15,2.14-21.3-3.69-10.84-10.11-7-30.38,6.79-36.36,7.82-3.38,16.22-3.59,24.52-4.27,5-.4,9.95-.55,14.92-.88,7-.47,12.14-4.2,16.11-9.65,6.74-9.24,9.44-19.91,10.48-31.08.29-3.09.16-6.23.22-9.34,1.07,0,1.41.89,1.8,1.66,2.39,4.63,4.5,9.39,6.44,14.23a193.53,193.53,0,0,1,12.39,50.24C653.4,153.67,654,156.72,652.47,159.51Z"/><path class="cls-6" d="M466.35,355.52c27.61-.22,54.14-5.35,79.27-17.15a147.05,147.05,0,0,0,14.08-7.51,80.07,80.07,0,0,1,11,27.47c.46,2.15-.82,2.54-2.19,3.16a178,178,0,0,1-44.47,13.37,183.16,183.16,0,0,1-59.79-.15c-2.65-.43-3.52-1-2.5-3.85C463.56,365.84,464.85,360.65,466.35,355.52Z"/><path class="cls-7" d="M652.47,159.51c1.55-2.79.93-5.84.61-8.68a193.53,193.53,0,0,0-12.39-50.24c-1.94-4.84-4.05-9.6-6.44-14.23-.39-.77-.73-1.61-1.8-1.66-.08-1.09-.16-2.19-.29-3.85a48.9,48.9,0,0,1,7.74,9.43c2.31,3.53,5.15,5.21,9.35,4,3.57,3.66,5.49,8.39,8.2,12.6.71,1.11,1,2.58,2.63,2.85-4.31,2.34-5,4.66-2.71,9.49a179.05,179.05,0,0,1,17.56,78.61,6.13,6.13,0,0,1-.31,2.25C667.85,186.18,662.07,171.79,652.47,159.51Z"/><path class="cls-8" d="M610.73,59.08c-9,5.14-8.83,13.24-8,21.52.34,3.34,1.08,6.61.44,10-1.3,7-6.17,11.41-12.73,11.32-8.1-.11-12.87-4.07-13.85-11.7-.78-6.09.85-11.88,2.72-17.57a99.07,99.07,0,0,1,12.53-24.54c1-1.5,1.75-2.06,3.49-.82C600.52,51,605.68,54.7,610.73,59.08Z"/><path class="cls-7" d="M366.22,325.58c6.08,3.35,12.09,6.84,18.26,10,18.6,9.58,38.43,15.29,59.06,18.37,3.67.55,7.4.69,11.1,1-1.28,4.54-2.68,9.05-3.79,13.63-.63,2.63-1.75,2.86-4.22,2.17a177.15,177.15,0,0,1-58-28.11c-3.3-2.42-6.36-3.18-9.78-.55-5.38-3.37-9.57-8.17-14.45-12.15A9,9,0,0,0,366.22,325.58Z"/><path class="cls-9" d="M647.13,214.94c2.67-2.36,2.48-5.78,3-8.81,1.27-6.91,2.12-13.89,3.19-20.84.07-.42.54-.78.82-1.16,3.61,5.8,6,12.18,8.78,18.39,2.53,5.68,5.22,11.25,9.41,15.95,1,1.08.66,8.63-.31,9.53-.65.6-1.4.34-2.1.15C661.18,225.76,653.35,221.75,647.13,214.94Z"/><path class="cls-10" d="M332,275.21c7.16,1,13.71,1.7,19.86,4,4.53,1.72,5.18,5,2.31,8.79a6.51,6.51,0,0,1-.46.58c-2.67,2.95-5.65,6.78-9.27,6.83-2.56,0-3.91-4.89-5.57-7.73C336.56,283.8,334.47,279.76,332,275.21Z"/><path class="cls-11" d="M494.36,121.72c-3.61,0-7.23.21-10.82,0-4.9-.35-8.08-3.39-8.56-8.26a55.67,55.67,0,0,1,.3-15.63c1.68-9,10.45-15.9,19.68-15.69a19.89,19.89,0,0,1,19.22,16.64,63.87,63.87,0,0,1,.23,14.16c-.4,5.42-3.71,8.53-9.23,8.86-3.59.22-7.21,0-10.82,0Zm.12-11.3c8.84,0,8.84,0,8.55-8.54-.17-5-3.61-8.54-8.38-8.53s-8.2,3.5-8.37,8.54C486,110.42,486,110.42,494.48,110.42Z"/><path class="cls-12" d="M450.6,91.23c0,1.62.13,3.25,0,4.85a5.1,5.1,0,0,1-5.12,5,4.94,4.94,0,0,1-5.59-4,27.26,27.26,0,0,1,0-11.48c.61-3,2.86-4.3,5.87-4a5,5,0,0,1,4.86,4.77,43.75,43.75,0,0,1,0,4.86Z"/><path class="cls-12" d="M538.63,91.31c0-1.62-.13-3.25,0-4.86a5,5,0,0,1,4.8-4.84c3-.32,5.27,1,5.92,3.93a26.78,26.78,0,0,1,0,11.48c-.66,3-3,4.35-5.89,4a5.08,5.08,0,0,1-4.83-4.87C538.51,94.56,538.63,92.93,538.63,91.31Z"/><path d="M252.75,270.79q-3.75-3.5-11.25-3.5h-42V33.79q0-8-4.25-11.75a15.65,15.65,0,0,0-10.75-3.75,18.82,18.82,0,0,0-9.75,2.5,25.38,25.38,0,0,0-7.75,7.5L7.5,261.29a61.93,61.93,0,0,0-5.75,10.25A21.52,21.52,0,0,0,0,279.79q0,7,4.25,10.75T16,294.29H168.5v67q0,7.5,4,11.5t11.5,4q7.5,0,11.5-4t4-11.5v-67h42q7.5,0,11.25-3.5t3.75-10Q256.5,274.29,252.75,270.79Zm-84.25-3.5H34.83l133.67-195Z"/><path d="M986.25,271q-3.75-3.5-11.25-3.5H933V34q0-8-4.25-11.75A15.65,15.65,0,0,0,918,18.54a18.82,18.82,0,0,0-9.75,2.5,25.38,25.38,0,0,0-7.75,7.5L741,261.54a61.93,61.93,0,0,0-5.75,10.25A21.52,21.52,0,0,0,733.5,280q0,7,4.25,10.75t11.75,3.75H902v67q0,7.5,4,11.5t11.5,4q7.5,0,11.5-4t4-11.5v-67h42q7.5,0,11.25-3.5T990,281Q990,274.54,986.25,271ZM902,267.54H768.33L902,72.58Z"/></svg>