<svg id="Layer_1" data-name="Layer 1" xmlns="http://www.w3.org/2000/svg" viewBox="0 0 990 394"><defs><style>.cls-1{fill:#2e3192;}.cls-2{fill:#00527f;}.cls-3{fill:#004766;}.cls-4{fill:#1b1464;}.cls-5{fill:#fff;}</style></defs><path class="cls-1" d="M503,101.88c-.17-5-3.61-8.54-8.38-8.53s-8.2,3.5-8.37,8.54c-.29,8.53-.29,8.53,8.2,8.53C503.32,110.42,503.32,110.42,503,101.88Zm0,0c-.17-5-3.61-8.54-8.38-8.53s-8.2,3.5-8.37,8.54c-.29,8.53-.29,8.53,8.2,8.53C503.32,110.42,503.32,110.42,503,101.88Zm0,0c-.17-5-3.61-8.54-8.38-8.53s-8.2,3.5-8.37,8.54c-.29,8.53-.29,8.53,8.2,8.53C503.32,110.42,503.32,110.42,503,101.88Zm0,0c-.17-5-3.61-8.54-8.38-8.53s-8.2,3.5-8.37,8.54c-.29,8.53-.29,8.53,8.2,8.53C503.32,110.42,503.32,110.42,503,101.88Zm141.5,65.91c-6.26-7.71-12.57-8.59-20.89-3.11-5.22,3.43-9.75,7.74-14.58,11.67-8.09,6.57-16.74,12.13-26.9,14.94-13.56,3.76-26.57-.6-34.33-11.12-11.57-15.68-6.65-46.42,20.17-52.86,11.12-2.68,22.47-3,33.77-3.47,5.86-.26,9.63-2.76,12.34-7.51,6.15-10.77,7.95-22.43,6.68-34.62a18,18,0,0,0-3-8.74c-.79-1.1-1.72-2.66-3.13-2.24-1.23.36-1,2.11-1.06,3.33-.28,3.77.73,7.42,1.11,11.13,1.27,12.18-6.48,24.17-17.62,27.22-17.8,4.88-33.54-8.65-31.81-27.3,1.41-15.18,7.68-28.46,15.82-41,2.63-4,2.69-4-1.73-6.36q-51.54-27-109.25-19.46a177.47,177.47,0,0,0-74.24,27.66c-2.58,1.68-3.34,2.75-1.29,5.58a111.39,111.39,0,0,1,7.76,12.75c10.48,19.38,14.39,39.64,7.83,61.23-1.52,5-2.8,5.84-8.13,5.5-.18.7-.38,1.39-.61,2.06q-.17.51-.36,1c-1.65,4.36-4.16,8.37-5.57,12.83,3.25,3.66,3.38,5.05.94,9.27a108.88,108.88,0,0,1-12.27,17.37c-3.27,3.74-4.76,7.7-3.84,12.66a14.46,14.46,0,0,1-.26,5.19c-1.5,7.75-9.52,11.12-16.13,6.79a17.55,17.55,0,0,1-6.94-9.45,34.13,34.13,0,0,1-1.46-9.2c-.31-5.42-3.18-9.06-8.09-11.08-5.32-2.17-8.4-.75-9.95,4.71a95.62,95.62,0,0,0-3.42,31.43c.42,8,1.51,15.89,6.16,22.78,3,4.5,7.32,6.49,12.7,6.54,4.7,0,5.75-3.83,7.52-6.81,3.1-5.19,7.21-9,13.34-9.81a36.56,36.56,0,0,1,19.09,2.29c8.53,3.59,13,11.6,11.65,20.83A51.26,51.26,0,0,1,400.06,255,48.74,48.74,0,0,0,396.15,265c-1,4.41.14,6.43,4.63,7.19a105.29,105.29,0,0,0,11.52,1c10.46.58,20.85,1.5,31,4.43,22.44,6.49,31.08,19.06,29.07,42.2-1.05,12.06-3.41,23.88-6,35.67,27.61-.22,54.14-5.35,79.27-17.15q1.82-.86,3.6-1.74l1.78-.91c.56-.28,1.11-.57,1.66-.86,1.8-.95,3.57-1.94,5.33-3l1.71-1h0c-4.23-8-10-14.84-15.54-21.87s-11.5-13.78-16.32-21.37c-11.36-17.94-10.58-39.21,2.22-55.9a69.87,69.87,0,0,1,27-21.32,123.86,123.86,0,0,1,35.76-10.21c20.07-2.55,39.16-1,54.31,14.75,2.67-2.36,2.48-5.78,3-8.81,1.27-6.91,2.12-13.89,3.19-20.84.07-.42.54-.78.82-1.16A66,66,0,0,0,644.53,167.79Zm-194-71.71A5.46,5.46,0,0,1,449,99.63a4.34,4.34,0,0,1-.72.56,5.31,5.31,0,0,1-.86.43,3.12,3.12,0,0,1-.43.15,6.05,6.05,0,0,1-1,.22,3.06,3.06,0,0,1-.54.07,6,6,0,0,1-1.41,0,4.91,4.91,0,0,1-1.34-.36,4.09,4.09,0,0,1-.42-.2,2.55,2.55,0,0,1-.39-.24,3.32,3.32,0,0,1-.36-.26,4.61,4.61,0,0,1-1.14-1.4c0-.09-.09-.18-.13-.28l-.15-.34a6.71,6.71,0,0,1-.25-.83,27.26,27.26,0,0,1,0-11.48,6.59,6.59,0,0,1,.27-1,5.06,5.06,0,0,1,.9-1.52,3.85,3.85,0,0,1,.35-.35,2.16,2.16,0,0,1,.33-.27c.07-.06.14-.1.21-.15a3.88,3.88,0,0,1,.81-.42,4.2,4.2,0,0,1,.5-.17l.08,0,.46-.11h0l.37,0a1.55,1.55,0,0,1,.31,0,7.4,7.4,0,0,1,1.24,0,6.77,6.77,0,0,1,1.34.26l.35.12.33.13a4.32,4.32,0,0,1,.43.22,4.89,4.89,0,0,1,.6.41L449,83a.29.29,0,0,1,.08.08,4.67,4.67,0,0,1,1.16,1.87,5.75,5.75,0,0,1,.25.95c0,.17.06.34.08.52a43.75,43.75,0,0,1,0,4.86h0C450.6,92.85,450.73,94.48,450.57,96.08Zm63.84,16.81c-.4,5.42-3.71,8.53-9.23,8.86-3.59.22-7.21,0-10.82,0v-.08c-3.61,0-7.23.21-10.82,0-4.9-.35-8.08-3.39-8.56-8.26a55.67,55.67,0,0,1,.3-15.63c1.68-9,10.45-15.9,19.68-15.69a19.89,19.89,0,0,1,19.22,16.64A63.87,63.87,0,0,1,514.41,112.89Zm24.25-16.73c-.15-1.6,0-3.23,0-4.85s-.13-3.25,0-4.86a5,5,0,0,1,4.8-4.84c3-.32,5.27,1,5.92,3.93a26.78,26.78,0,0,1,0,11.48c-.66,3-3,4.35-5.89,4a7.4,7.4,0,0,1-1-.18,5.34,5.34,0,0,1-1.68-.74A5.08,5.08,0,0,1,538.66,96.16Zm-44-2.81c-4.77,0-8.2,3.5-8.37,8.54-.29,8.53-.29,8.53,8.2,8.53,8.84,0,8.84,0,8.55-8.54C502.86,96.84,499.42,93.34,494.65,93.35Zm8.38,8.53c-.17-5-3.61-8.54-8.38-8.53s-8.2,3.5-8.37,8.54c-.29,8.53-.29,8.53,8.2,8.53C503.32,110.42,503.32,110.42,503,101.88Zm0,0c-.17-5-3.61-8.54-8.38-8.53s-8.2,3.5-8.37,8.54c-.29,8.53-.29,8.53,8.2,8.53C503.32,110.42,503.32,110.42,503,101.88Zm0,0c-.17-5-3.61-8.54-8.38-8.53s-8.2,3.5-8.37,8.54c-.29,8.53-.29,8.53,8.2,8.53C503.32,110.42,503.32,110.42,503,101.88Zm0,0c-.17-5-3.61-8.54-8.38-8.53s-8.2,3.5-8.37,8.54c-.29,8.53-.29,8.53,8.2,8.53C503.32,110.42,503.32,110.42,503,101.88Z"/><path class="cls-2" d="M461.62,313.44a215.91,215.91,0,0,1-7,41.55c-3.7-.33-7.43-.47-11.1-1-20.63-3.08-40.46-8.79-59.06-18.37-5.86-3-11.57-6.32-17.34-9.51h0l-.91-.5a3.86,3.86,0,0,0-.09-.49,10.3,10.3,0,0,0-2.77-4.62c-3.64-4.1-7.1-8.36-10.79-12.4-1.85-2-1.47-3.08.77-4.44a37.08,37.08,0,0,0,8-6.73c10.24-11.09,6.62-24.83-7.92-29a178.7,178.7,0,0,0-20.82-4.28c-4.37-.7-6.74-2.42-8.18-7-20.55-64.83-10-123.78,33-176.67a163.66,163.66,0,0,1,24-23.5c1.34-1.09,2.17-1.61,3.42.3,7.68,11.74,14.39,23.89,16.57,38a60,60,0,0,1-2,27.34c-1.17,3.71-.61,6.56,2.63,8.78h0c-.18.7-.38,1.39-.61,2.06l-.36,1c-1.65,4.36-4.16,8.37-5.57,12.83-4.6-1.25-6.19-.68-8.64,3.41a119.75,119.75,0,0,1-9,13.27c-8.15,10.26-8.15,10.26-9.05,23.63-1.83-2.89-1.89-5.71-2-8.51a23.72,23.72,0,0,0-23.27-22.29c-7.53,0-13.24,3.69-15.77,10.85-4.46,12.64-5.56,25.75-4.77,39.05.45,7.49,1.69,14.86,4.85,21.75,4.47,9.74,11.62,15.95,22.71,17,7.74.71,13.54-2.1,17.64-8.72,5.27-8.53,8.94-9.88,18.44-7.11,5.56,1.62,7.62,5,6.68,10.72a41.19,41.19,0,0,1-3.51,10.59,70.56,70.56,0,0,0-3.8,9.32c-4,13.51,1.75,22.34,15.7,23.92,8.79,1,17.68.79,26.44,2.19,7.4,1.19,14.7,2.68,21.41,6.21C458.07,296.65,462.36,303.62,461.62,313.44Z"/><path class="cls-2" d="M569.57,324.84c-7.62-12.16-16.89-23.07-25.77-34.29-5.26-6.64-10.18-13.47-11.87-22.11-2.31-11.8.46-22.2,8.1-31.34,8.75-10.45,20.06-16.88,32.92-20.89,13.89-4.33,27.95-7.12,42.59-5.13,8.63,1.16,16.3,4.27,22.41,10.73,2,2.16,4.31,4.12,6.47,6.18-1,2.8-2,5.62-3,8.4A183.9,183.9,0,0,1,620.26,276a189.3,189.3,0,0,1-34.17,37C580.9,317.34,575.58,321.61,569.57,324.84Z"/><path class="cls-3" d="M569.57,324.84c6-3.23,11.33-7.5,16.52-11.85a189.3,189.3,0,0,0,34.17-37,183.9,183.9,0,0,0,21.14-39.61c1.06-2.78,2-5.6,3-8.4,7.13,5.13,14.77,9.24,23.43,11.14,2.45.54,1.6,1.87,1.23,3.3a175.61,175.61,0,0,1-30.31,62.81,183.23,183.23,0,0,1-54.18,48.07c-2.56,1.51-3.33,1.24-4-1.67C578.55,342.07,574.26,333.36,569.57,324.84Z"/><path class="cls-2" d="M652.47,159.51c-1.09-1-2.17-2-3.27-3-7.82-7.09-17.05-8.5-26.64-4.07-5.85,2.7-10.63,6.9-15.49,11-8,6.76-16.11,13.39-26.36,16.58-7.71,2.4-15,2.14-21.3-3.69-10.84-10.11-7-30.38,6.79-36.36,7.82-3.38,16.22-3.59,24.52-4.27,5-.4,9.95-.55,14.92-.88,7-.47,12.14-4.2,16.11-9.65,6.74-9.24,9.44-19.91,10.48-31.08.29-3.09.16-6.23.22-9.34,1.07,0,1.41.89,1.8,1.66,2.39,4.63,4.5,9.39,6.44,14.23a193.53,193.53,0,0,1,12.39,50.24C653.4,153.67,654,156.72,652.47,159.51Z"/><path class="cls-4" d="M466.35,355.52c27.61-.22,54.14-5.35,79.27-17.15a147.05,147.05,0,0,0,14.08-7.51,80.07,80.07,0,0,1,11,27.47c.46,2.15-.82,2.54-2.19,3.16a178,178,0,0,1-44.47,13.37,183.16,183.16,0,0,1-59.79-.15c-2.65-.43-3.52-1-2.5-3.85C463.56,365.84,464.85,360.65,466.35,355.52Z"/><path class="cls-3" d="M674.93,197.83a6.13,6.13,0,0,1-.31,2.25c-6.77-13.9-12.55-28.29-22.15-40.57,1.55-2.79.93-5.84.61-8.68a193.53,193.53,0,0,0-12.39-50.24c-1.94-4.84-4.05-9.6-6.44-14.23-.39-.77-.73-1.61-1.8-1.66-.08-1.09-.16-2.19-.29-3.85a48.9,48.9,0,0,1,7.74,9.43A12.66,12.66,0,0,0,642,92.79a180.22,180.22,0,0,1,14.65,24.68,16.92,16.92,0,0,0,.73,1.75A179.05,179.05,0,0,1,674.93,197.83Z"/><path class="cls-2" d="M610.73,59.08c-9,5.14-8.83,13.24-8,21.52.34,3.34,1.08,6.61.44,10-1.3,7-6.17,11.41-12.73,11.32-8.1-.11-12.87-4.07-13.85-11.7-.78-6.09.85-11.88,2.72-17.57a99.07,99.07,0,0,1,12.53-24.54c1-1.5,1.75-2.06,3.49-.82C600.52,51,605.68,54.7,610.73,59.08Z"/><path class="cls-3" d="M454.64,355c-1.28,4.54-2.68,9.05-3.79,13.63-.63,2.63-1.75,2.86-4.22,2.17a177.15,177.15,0,0,1-58-28.11,10.12,10.12,0,0,0-4.88-2.17h0a180.33,180.33,0,0,1-16.57-14.42c5.77,3.19,11.48,6.49,17.34,9.51,18.6,9.58,38.43,15.29,59.06,18.37C447.21,354.52,450.94,354.66,454.64,355Z"/><path class="cls-4" d="M647.13,214.94c2.67-2.36,2.48-5.78,3-8.81,1.27-6.91,2.12-13.89,3.19-20.84.07-.42.54-.78.82-1.16,3.61,5.8,6,12.18,8.78,18.39,2.53,5.68,5.22,11.25,9.41,15.95,1,1.08.66,8.63-.31,9.53-.65.6-1.4.34-2.1.15C661.18,225.76,653.35,221.75,647.13,214.94Z"/><path class="cls-4" d="M332,275.21c7.16,1,13.71,1.7,19.86,4,4.53,1.72,5.18,5,2.31,8.79a6.51,6.51,0,0,1-.46.58c-2.67,2.95-5.65,6.78-9.27,6.83-2.56,0-3.91-4.89-5.57-7.73C336.56,283.8,334.47,279.76,332,275.21Z"/><path class="cls-5" d="M252.75,270.79q-3.75-3.5-11.25-3.5h-42V33.79q0-8-4.25-11.75a15.65,15.65,0,0,0-10.75-3.75,18.82,18.82,0,0,0-9.75,2.5,25.38,25.38,0,0,0-7.75,7.5L7.5,261.29a61.93,61.93,0,0,0-5.75,10.25A21.52,21.52,0,0,0,0,279.79q0,7,4.25,10.75T16,294.29H168.5v67q0,7.5,4,11.5t11.5,4q7.5,0,11.5-4t4-11.5v-67h42q7.5,0,11.25-3.5t3.75-10Q256.5,274.29,252.75,270.79Zm-84.25-3.5H34.83l133.67-195"/><path class="cls-5" d="M986.25,271q-3.75-3.5-11.25-3.5H933V34q0-8-4.25-11.75A15.65,15.65,0,0,0,918,18.54a18.82,18.82,0,0,0-9.75,2.5,25.38,25.38,0,0,0-7.75,7.5L741,261.54a61.93,61.93,0,0,0-5.75,10.25A21.52,21.52,0,0,0,733.5,280q0,7,4.25,10.75t11.75,3.75H902v67q0,7.5,4,11.5t11.5,4q7.5,0,11.5-4t4-11.5v-67h42q7.5,0,11.25-3.5T990,281Q990,274.54,986.25,271ZM902,267.54H768.33L902,72.58Z"/></svg>