<?xml version="1.0" encoding="utf-8"?>
<!-- Generator: Adobe Illustrator 25.2.0, SVG Export Plug-In . SVG Version: 6.00 Build 0)  -->
<svg version="1.1" id="Layer_1" xmlns="http://www.w3.org/2000/svg" xmlns:xlink="http://www.w3.org/1999/xlink" x="0px" y="0px"
	 viewBox="0 0 577 578" style="enable-background:new 0 0 577 578;" xml:space="preserve">
<style type="text/css">
	.st0{fill:#202C37;}
	.st1{fill:#2E3192;}
	.st2{fill:#00527F;}
	.st3{fill:#004766;}
	.st4{fill:#1B1464;}
	.st5{fill:#FFFFFF;}
	.st6{fill:#96D48E;}
	.st7{fill:#96D58E;}
	.st8{fill:#87BF80;}
	.st9{fill:#86BE7F;}
	.st10{fill:#95D38D;}
	.st11{fill:#020303;}
	.st12{fill:#68BEE0;}
	.st13{fill:#5EAACA;}
	.st14{fill:#5DA9C9;}
	.st15{fill:#66BADC;}
	.st16{fill:#020304;}
	.st17{fill:#030506;}
	.st18{fill:#0071BC;}
	.st19{fill:none;}
	.st20{fill:#AAD4C8;}
	.st21{fill:#82BFAB;}
	.st22{fill:#616E7D;}
	.st23{fill:#E8C143;}
	.st24{fill:#FAF0C9;}
	.st25{fill:#EFEFBD;}
	.st26{fill:#FEFEFE;}
	.st27{fill:#020202;}
	.st28{fill:#4CB8E7;}
	.st29{fill:#010203;}
	.st30{fill:#BDE5F2;}
</style>
<path class="st1" d="M304.5,165.7c-0.2-6.3-4.5-10.7-10.5-10.7c-6,0-10.3,4.4-10.5,10.7c-0.4,10.7-0.4,10.7,10.3,10.7
	C304.9,176.4,304.9,176.4,304.5,165.7z M304.5,165.7c-0.2-6.3-4.5-10.7-10.5-10.7c-6,0-10.3,4.4-10.5,10.7
	c-0.4,10.7-0.4,10.7,10.3,10.7C304.9,176.4,304.9,176.4,304.5,165.7z M481.8,248.3c-7.9-9.7-15.8-10.8-26.2-3.9
	c-6.5,4.3-12.2,9.7-18.3,14.6c-10.1,8.2-21,15.2-33.7,18.7c-17,4.7-33.3-0.8-43-13.9c-14.5-19.7-8.3-58.2,25.3-66.2
	c13.9-3.4,28.2-3.7,42.3-4.4c7.3-0.3,12.1-3.5,15.5-9.4c7.7-13.5,10-28.1,8.4-43.4c-0.4-3.9-1.4-7.7-3.8-10.9
	c-1-1.4-2.1-3.3-3.9-2.8c-1.5,0.5-1.2,2.6-1.3,4.2c-0.3,4.7,0.9,9.3,1.4,14c1.6,15.3-8.1,30.3-22.1,34.1
	c-22.3,6.1-42-10.8-39.9-34.2c1.8-19,9.6-35.7,19.8-51.4c3.3-5.1,3.4-5.1-2.2-8c-43-22.6-88.7-30.7-136.9-24.4
	c-33.6,4.4-64.6,16.2-93,34.7c-3.2,2.1-4.2,3.4-1.6,7c3.7,5,6.8,10.5,9.7,16c13.1,24.3,18,49.7,9.8,76.7c-1.9,6.2-3.5,7.3-10.2,6.9
	c-1.8,7-6,13.1-8.2,19.9c4.1,4.6,4.2,6.3,1.2,11.6c-4.5,7.7-9.5,15.1-15.4,21.8c-4.1,4.7-6,9.7-4.8,15.9c0.4,2.1,0.1,4.4-0.3,6.5
	c-1.9,9.7-11.9,13.9-20.2,8.5c-4.4-2.8-7.1-7-8.7-11.8c-1.3-3.7-1.6-7.6-1.8-11.5c-0.4-6.8-4-11.3-10.1-13.9
	c-6.7-2.7-10.5-0.9-12.5,5.9c-3.7,12.9-5,26.1-4.3,39.4c0.5,10,1.9,19.9,7.7,28.5c3.8,5.6,9.2,8.1,15.9,8.2c5.9,0,7.2-4.8,9.4-8.5
	c3.9-6.5,9-11.3,16.7-12.3c8.1-1.1,16.2-0.4,23.9,2.9c10.7,4.5,16.2,14.5,14.6,26.1c-0.9,6.4-2.9,12.4-5.6,18.2
	c-1.9,4.1-3.9,8.2-4.9,12.6c-1.2,5.5,0.2,8.1,5.8,9c4.8,0.8,9.6,1,14.4,1.2c13.1,0.7,26.1,1.9,38.8,5.5
	c28.1,8.1,38.9,23.9,36.4,52.9c-1.3,15.1-4.3,29.9-7.5,44.7c34.6-0.3,67.8-6.7,99.3-21.5c6.1-2.9,11.9-5.9,17.6-9.4
	c-5.3-10-12.5-18.6-19.5-27.4c-6.9-8.8-14.4-17.3-20.4-26.8c-14.2-22.5-13.3-49.1,2.8-70c9-11.7,20.4-20.6,33.8-26.7
	c14.3-6.5,29.3-10.8,44.8-12.8c25.1-3.2,49.1-1.3,68,18.5c3.4-2.9,3.1-7.2,3.8-11c1.6-8.7,2.7-17.4,4-26.1c0.1-0.5,0.7-1,1-1.4
	C490.8,261.4,486.8,254.5,481.8,248.3z M238.8,157.3c0,0.3,0,0.6-0.1,0.9c0,0.1,0,0.2,0,0.3c-0.1,0.5-0.1,1-0.3,1.5
	c0,0.2-0.1,0.3-0.1,0.5c-0.1,0.4-0.3,0.8-0.5,1.1c-0.1,0.1-0.2,0.3-0.2,0.4c-0.1,0.1-0.2,0.2-0.2,0.3c-1.1,1.5-2.8,2.3-5,2.5
	c-0.1,0-0.2,0-0.3,0c-0.1,0-0.3,0-0.4,0c-0.3,0-0.7,0-1-0.1c-0.3,0-0.6-0.1-0.9-0.2c-0.1-0.1-0.3-0.1-0.4-0.1
	c-0.1-0.1-0.3-0.1-0.4-0.2c-1.2-0.5-2.2-1.5-2.9-2.8c-0.2-0.3-0.3-0.7-0.4-1.1c-0.1-0.2-0.1-0.4-0.2-0.6c-1.1-4.7-1-9.6-0.1-14.4
	c0.8-3.7,3.6-5.4,7.4-5c3.6,0.3,5.7,2.4,6.1,6c0,0.4,0.1,0.8,0.1,1.1c0,0.2,0,0.4,0,0.6c0,1.1,0,2.3-0.1,3.4c0,0.3,0,0.6,0,1
	c0,0,0,0,0,0c0,1.3,0.1,2.6,0.1,3.9C238.9,156.6,238.9,156.9,238.8,157.3z M318.7,179.5c-0.5,6.8-4.6,10.7-11.6,11.1
	c-4.5,0.3-9,0-13.6,0v-0.1c-4.5,0-9.1,0.3-13.6-0.1c-6.2-0.4-10.1-4.2-10.7-10.4c-0.6-6.5-0.8-13.1,0.4-19.6
	c2.1-11.3,13.1-19.9,24.7-19.7c12,0.3,22.3,9.2,24.1,20.9C319.3,167.7,319.2,173.6,318.7,179.5z M351.8,163.4
	c-0.1-0.1-0.2-0.2-0.4-0.3c-0.1-0.1-0.3-0.2-0.4-0.4c-1.1-1-1.7-2.4-1.9-4.2c-0.2-2,0-4.1,0-6.1s-0.2-4.1,0-6.1c0-0.2,0-0.3,0.1-0.5
	c0,0,0-0.1,0-0.1c0-0.2,0.1-0.4,0.1-0.6c0-0.2,0.1-0.4,0.1-0.6c0-0.1,0.1-0.2,0.1-0.3c0.1-0.3,0.2-0.5,0.3-0.8
	c0-0.1,0.1-0.2,0.2-0.3c0,0,0,0,0,0c0-0.1,0.1-0.2,0.1-0.2c0,0,0,0,0-0.1c0.1-0.1,0.1-0.2,0.2-0.3c0,0,0-0.1,0.1-0.1
	c0.1-0.1,0.2-0.3,0.3-0.4c0.1-0.1,0.3-0.3,0.4-0.4c0.1-0.1,0.2-0.2,0.4-0.3c0.3-0.2,0.7-0.4,1.1-0.6c0.2-0.1,0.3-0.1,0.5-0.2
	c0.1,0,0.2-0.1,0.2-0.1c0.1-0.1,0.3-0.1,0.4-0.1c0.2-0.1,0.4-0.1,0.6-0.1c0.2,0,0.4-0.1,0.6-0.1c3.8-0.4,6.6,1.2,7.4,4.9
	c0.2,0.9,0.3,1.8,0.5,2.7c0,0.3,0.1,0.6,0.1,0.9c0,0.2,0,0.4,0.1,0.6c0,0.3,0.1,0.5,0.1,0.8c0,0.4,0.1,0.8,0.1,1.1
	c0,0.4,0,0.8,0,1.1c0,0.4,0,0.8,0,1.1c0,0,0,0,0,0c0,0.4,0,0.7-0.1,1.1c0,0.2,0,0.5-0.1,0.8c0,0.2,0,0.4-0.1,0.6
	c0,0.3-0.1,0.6-0.1,0.9c-0.1,0.9-0.3,1.8-0.5,2.7c-0.2,0.7-0.4,1.4-0.7,1.9c-0.1,0.1-0.2,0.3-0.2,0.4c0,0,0,0,0,0
	c-0.1,0.2-0.2,0.3-0.4,0.5c-0.1,0.2-0.3,0.4-0.5,0.6c-0.1,0.1-0.3,0.2-0.4,0.3c-0.1,0.1-0.2,0.2-0.3,0.2c-0.1,0-0.2,0.1-0.2,0.2
	c0,0-0.1,0.1-0.1,0.1c-0.1,0.1-0.2,0.1-0.3,0.2c0,0-0.1,0-0.1,0c-0.1,0-0.2,0.1-0.3,0.1c-0.2,0.1-0.3,0.1-0.5,0.2
	c-0.2,0.1-0.4,0.1-0.5,0.2c-0.1,0-0.3,0.1-0.4,0.1c-0.1,0-0.2,0-0.4,0c0,0-0.1,0-0.1,0l-0.4,0c-0.5,0-1,0-1.5,0
	c-0.4-0.1-0.8-0.1-1.2-0.2c-0.2,0-0.3-0.1-0.5-0.1c-0.5-0.2-1-0.4-1.5-0.7C351.9,163.5,351.8,163.5,351.8,163.4z M294,155
	c-6,0-10.3,4.4-10.5,10.7c-0.4,10.7-0.4,10.7,10.3,10.7c11.1,0,11.1,0,10.7-10.7C304.3,159.4,300,155,294,155z M304.5,165.7
	c-0.2-6.3-4.5-10.7-10.5-10.7c-6,0-10.3,4.4-10.5,10.7c-0.4,10.7-0.4,10.7,10.3,10.7C304.9,176.4,304.9,176.4,304.5,165.7z
	 M304.5,165.7c-0.2-6.3-4.5-10.7-10.5-10.7c-6,0-10.3,4.4-10.5,10.7c-0.4,10.7-0.4,10.7,10.3,10.7
	C304.9,176.4,304.9,176.4,304.5,165.7z"/>
<path class="st2" d="M163,350.9c-7.2-8-16-14.7-25.8-19.4c2.8-4,5.3-6.3,8.4-7.3c3.4-1.1,7.4-0.6,13,1c7,2,9.5,6.2,8.4,13.4
	c-0.1,0.4-0.1,0.8-0.2,1.1C166,343.7,164.6,347.3,163,350.9z"/>
<path class="st2" d="M147.6,243c-10.2,12.9-10.2,12.9-11.3,29.6c-2.3-3.6-2.4-7.2-2.5-10.7c-0.8-15.3-13.9-27.9-29.2-27.9
	c-9.4,0-16.6,4.6-19.8,13.6c-5.6,15.8-7,32.3-6,48.9c0.4,6.4,1.2,12.8,3,19c0.8,2.8,1.8,5.6,3.1,8.3c0.2,0.5,0.4,0.9,0.7,1.4
	c-4.4,0.9-8.7,2.2-12.9,3.8c-0.7-3.4-1.3-6.9-1.8-10.3c-10.3-65.2,6.5-125.4,51.1-180.3c8.9-10.9,19.1-20.6,30.1-29.4
	c1.7-1.4,2.7-2,4.3,0.4c9.6,14.7,18,29.9,20.8,47.6c1.8,11.6,1,23.1-2.5,34.2c-1.5,4.6-0.8,8.2,3.3,11c-1.8,7.1-6,13.1-8.2,19.9
	c-5.8-1.6-7.8-0.8-10.8,4.3C155.5,232.2,151.8,237.7,147.6,243z"/>
<path class="st2" d="M252.6,430.8c-1.3,17.6-4,35-8.8,52.1c-4.6-0.4-9.3-0.6-13.9-1.3c-20.1-3-39.5-8-58.2-15.7
	c-3.3-1.4-6.6-2.8-9.9-4.4c13.7-14.6,22.1-34.3,22.2-55.8c0-3.9-0.2-7.8-0.8-11.6c3.4,0.3,6.9,0.4,10.3,0.6c5.7,0.3,11.3,0.7,17,1.6
	c9.3,1.5,18.4,3.4,26.8,7.8C248.1,409.7,253.5,418.5,252.6,430.8z"/>
<path class="st2" d="M387.8,445.1c-9.5-15.2-21.2-28.9-32.3-43c-6.6-8.3-12.8-16.9-14.9-27.7c-2.9-14.8,0.6-27.8,10.2-39.3
	c11-13.1,25.1-21.1,41.2-26.2c17.4-5.4,35-8.9,53.4-6.4c10.8,1.5,20.4,5.3,28.1,13.4c2.6,2.7,5.4,5.2,8.1,7.7
	c-1.3,3.5-2.5,7-3.8,10.5c-6.7,17.7-15.7,34.1-26.5,49.6c-12.1,17.4-26.6,32.8-42.8,46.4C402,435.7,395.4,441,387.8,445.1z"/>
<path class="st3" d="M387.8,445.1c7.5-4.1,14.2-9.4,20.7-14.9c16.2-13.6,30.7-28.9,42.8-46.4c10.8-15.5,19.8-32,26.5-49.6
	c1.3-3.5,2.5-7,3.8-10.5c8.9,6.4,18.5,11.6,29.4,14c3.1,0.7,2,2.3,1.6,4.1c-7.4,28.8-20.1,55-38,78.7
	c-18.6,24.6-41.3,44.6-67.9,60.2c-3.2,1.9-4.2,1.5-5-2.1C399.1,466.6,393.7,455.7,387.8,445.1z"/>
<path class="st2" d="M491.7,237.9c-1.4-1.3-2.7-2.6-4.1-3.8c-9.8-8.9-21.4-10.6-33.4-5.1c-7.3,3.4-13.3,8.6-19.4,13.8
	c-10,8.5-20.2,16.8-33,20.8c-9.7,3-18.8,2.7-26.7-4.6c-13.6-12.7-8.8-38.1,8.5-45.6c9.8-4.2,20.3-4.5,30.7-5.3
	c6.2-0.5,12.5-0.7,18.7-1.1c8.8-0.6,15.2-5.3,20.2-12.1c8.4-11.6,11.8-24.9,13.1-38.9c0.4-3.9,0.2-7.8,0.3-11.7
	c1.3,0.1,1.8,1.1,2.3,2.1c3,5.8,5.6,11.8,8.1,17.8c8.1,20.3,13,41.3,15.5,62.9C492.9,230.6,493.7,234.4,491.7,237.9z"/>
<path class="st4" d="M258.5,483.5c34.6-0.3,67.8-6.7,99.3-21.5c6.1-2.8,11.9-5.9,17.6-9.4c6.9,10.5,11.1,22.1,13.8,34.4
	c0.6,2.7-1,3.2-2.7,4c-17.8,8-36.4,13.6-55.7,16.8c-25,4.1-49.9,3.9-74.9-0.2c-3.3-0.5-4.4-1.2-3.1-4.8
	C255,496.4,256.7,489.9,258.5,483.5z"/>
<path class="st3" d="M491.7,237.9c1.9-3.5,1.2-7.3,0.8-10.9c-2.5-21.6-7.4-42.7-15.5-62.9c-2.4-6.1-5.1-12-8.1-17.8
	c-0.5-1-0.9-2-2.3-2.1c-0.1-1.4-0.2-2.7-0.4-4.8c4.1,3.8,7,7.8,9.7,11.8c2.9,4.4,19,30.2,21.9,36.3c14.8,31.2,22.1,64,22,98.5
	c0,0.9,0,1.8-0.4,2.8C511,271.3,503.7,253.3,491.7,237.9z"/>
<path class="st2" d="M439.4,112.1c-11.3,6.4-11.1,16.6-10,27c0.4,4.2,1.4,8.3,0.6,12.6c-1.6,8.8-7.7,14.3-16,14.2
	c-10.2-0.1-16.1-5.1-17.4-14.7c-1-7.6,1.1-14.9,3.4-22c3.6-11,9.2-21.1,15.7-30.7c1.3-1.9,2.2-2.6,4.4-1
	C426.6,102,433.1,106.6,439.4,112.1z"/>
<path class="st3" d="M243.9,482.8c-1.6,5.7-3.4,11.3-4.7,17.1c-0.8,3.3-2.2,3.6-5.3,2.7c-24.2-6.7-46.6-17.1-67.2-31.3
	c1.8-1.7,3.5-3.6,5.1-5.5c18.6,7.7,38.1,12.7,58.2,15.7C234.5,482.2,239.2,482.4,243.9,482.8z"/>
<path class="st4" d="M485,307.4c3.3-3,3.1-7.2,3.8-11c1.6-8.7,2.7-17.4,4-26.1c0.1-0.5,0.7-1,1-1.5c4.5,7.3,7.5,15.3,11,23
	c3.2,7.1,6.5,14.1,11.8,20c1.2,1.4,0.8,10.8-0.4,11.9c-0.8,0.8-1.8,0.4-2.6,0.2C502.6,320.9,492.8,315.9,485,307.4z"/>
<path class="st15" d="M90.2,382.9c9,1.3,17.2,2.1,24.9,5.1c5.7,2.2,6.5,6.2,2.9,11c-0.2,0.2-0.4,0.5-0.6,0.7
	c-3.4,3.7-7.1,8.5-11.6,8.6c-3.2,0-4.9-6.1-7-9.7C95.9,393.6,93.3,388.6,90.2,382.9z"/>
<path class="st23" d="M100.3,497.8c-52.4-1.3-91.5-44.4-90.4-94c1.2-52.4,44.4-91.5,94-90.4c52.2,1.1,92.3,44.6,90.4,95.8
	C192.3,459.6,149.9,498.8,100.3,497.8z M20,405.5c0,45,36.8,81.9,81.9,82c45,0.1,81.9-36.7,82.1-81.9c0.2-45-37-82.2-82.1-82.2
	C56.9,323.6,20,360.5,20,405.5z"/>
<path class="st23" d="M251.7,545.3c-0.2,3.7-2,6.9-5.8,8.8c-3.7,1.8-7.3,1.4-10.6-1c-0.9-0.7-1.7-1.5-2.5-2.2
	c-14.1-14.1-28.3-28.3-42.4-42.4c-1.3-1.3-1.7-2.1-0.1-3.5c4.2-3.4,7.9-7.3,11.4-11.4c0.9-1.1,1.5-1.4,2.7-0.2
	c14.6,14.7,29.2,29.3,43.8,43.9C250.4,539.4,251.7,541.9,251.7,545.3z"/>
<path class="st24" d="M181.4,499.4c-0.4-0.4-0.8-0.8-1.2-1.1c-4-4-8.1-8.1-12.1-12.1c-0.9-0.9-1.2-1.4,0-2.4
	c4.4-3.7,8.4-7.7,12.1-12.1c0.8-1,1.3-1.2,2.4-0.2c4,4.2,8.2,8.3,12.3,12.3c0.9,0.9,0.9,1.3,0.1,2.2c-3.9,4.4-8.1,8.5-12.5,12.4
	C182.1,498.8,181.8,499,181.4,499.4z"/>
<path class="st25" d="M102,333.8c39.4-0.1,71.7,32.1,71.9,71.6c0.2,39.4-32.3,72-71.8,71.9c-39.4-0.1-71.7-32.3-71.7-71.7
	C30.2,366.2,62.5,333.9,102,333.8z M159.8,385c-0.3-0.8-0.5-2-1-3.1c-7.5-17.3-20.2-29-38.1-35c-5.8-1.9-11.7-2.9-17.8-2.9
	c-3.5,0-5.9,2-5.9,5c-0.1,3,2.2,5,5.7,5.2c0.3,0,0.7,0,1,0c16.2,0.9,29.3,7.7,39.2,20.5c3,3.8,5.1,8,7,12.4c1.2,2.7,3.5,3.7,6,3
	C158.2,389.6,159.8,387.6,159.8,385z M163.5,405.5c0-2.7-2.4-5-5.1-5c-2.7,0-5.1,2.3-5.1,5c-0.1,2.8,2.4,5.2,5.2,5.2
	C161.2,410.6,163.6,408.1,163.5,405.5z"/>
</svg>
