<svg xmlns="http://www.w3.org/2000/svg" viewBox="0 0 576.89 585.38"><defs><style>.cls-1{fill:none;}.cls-2{fill:#aad4c8;}.cls-3{fill:#82bfab;}.cls-4{fill:#616e7d;}</style></defs><g id="Object"><path class="cls-1" d="M308.19,191.52c-64,0-116.5,52.1-117,116.14A117,117,0,0,0,307.32,425.53h.92c64,0,116.49-52.1,117-116.13A117.16,117.16,0,0,0,309.07,191.52Zm-90.27,52.82A110.92,110.92,0,0,1,307.5,197.6a229.31,229.31,0,0,1-15.2,69.62,245,245,0,0,0-74.38-12.77Zm-14,102a111.25,111.25,0,0,1-6.7-38.63,109.88,109.88,0,0,1,6.7-36.74Zm14,18.67V268.38a231.33,231.33,0,0,1,68.92,11.72A227.89,227.89,0,0,1,217.92,365Zm21.5.49A237.08,237.08,0,0,0,300,284.93a223.23,223.23,0,0,1,45.29,24.6A184.37,184.37,0,0,1,239.42,365.5ZM388.66,232.3A182.89,182.89,0,0,1,354.53,299a238.1,238.1,0,0,0-49.14-26.9,242.13,242.13,0,0,0,16-73.67A110.63,110.63,0,0,1,388.66,232.3Z"/><path class="cls-2" d="M107.63,294.2a221.33,221.33,0,0,0-28.71,17.74,185.41,185.41,0,0,0,43.34,32.86,190.09,190.09,0,0,1-3.53-37.68c0-1.42.1-2.83.14-4.24A28.09,28.09,0,0,1,107.63,294.2Z"/><path class="cls-2" d="M98.22,196.83l-43,0A27.84,27.84,0,0,1,30,218.52a182.48,182.48,0,0,0,39.5,83,238.47,238.47,0,0,1,32.55-20.19,27.34,27.34,0,0,1-.43-4.27,27.72,27.72,0,0,1,7.78-19.27A243.1,243.1,0,0,1,98.22,196.83Z"/><path class="cls-2" d="M121.71,250.38a27.33,27.33,0,0,1,6.75-1.15A187,187,0,0,1,156,196.81l-43.8,0A230.07,230.07,0,0,0,121.71,250.38Z"/><path class="cls-2" d="M203.94,271a109.88,109.88,0,0,0-6.7,36.74,111.25,111.25,0,0,0,6.7,38.63Z"/><path class="cls-2" d="M72.52,61.55a226.89,226.89,0,0,0,44.13,27.39,240.45,240.45,0,0,1,63.2-87.43A184.21,184.21,0,0,0,72.52,61.55Z"/><path class="cls-2" d="M111.75,182.87l55.76,0a189.29,189.29,0,0,1,36.43-31V124.4a241.26,241.26,0,0,1-79.51-16.86A230.34,230.34,0,0,0,111.75,182.87Z"/><path class="cls-2" d="M27.94,162.83A27.83,27.83,0,0,1,54.61,182.9l43.18,0A244,244,0,0,1,111.58,102a241,241,0,0,1-47.89-29.6,182.17,182.17,0,0,0-36,90.48Z"/><path class="cls-2" d="M239.42,365.5a184.37,184.37,0,0,0,105.89-56A223.23,223.23,0,0,0,300,284.93,237.08,237.08,0,0,1,239.42,365.5Z"/><path class="cls-2" d="M305.39,272.06A238.1,238.1,0,0,1,354.53,299a182.89,182.89,0,0,0,34.13-66.66,110.63,110.63,0,0,0-67.27-33.91A242.13,242.13,0,0,1,305.39,272.06Z"/><path class="cls-2" d="M390.66,141.84a183.12,183.12,0,0,0-30.37-66.66,241.56,241.56,0,0,1-31.41,20.17,27.13,27.13,0,0,1-4.41,27A185.64,185.64,0,0,1,390.66,141.84Z"/><path class="cls-2" d="M203.94,110.43V0a227.19,227.19,0,0,0-74.49,94.48A226.86,226.86,0,0,0,203.94,110.43Z"/><path class="cls-2" d="M217.92,1.59v109a227.34,227.34,0,0,0,57.16-8.39,27.66,27.66,0,0,1,10.21-18.85A227.67,227.67,0,0,0,217.92,1.59Z"/><path class="cls-2" d="M297.94,77.56a26.67,26.67,0,0,1,22.89,6.31,229.26,229.26,0,0,0,30.85-19.66A183.47,183.47,0,0,0,239.41,1.09,240.69,240.69,0,0,1,297.94,77.56Z"/><path class="cls-2" d="M217.92,143.5a185.3,185.3,0,0,1,63.65-20.45,27.5,27.5,0,0,1-4.41-6.87,241.2,241.2,0,0,1-59.24,8.4Z"/><path class="cls-2" d="M217.92,365a227.89,227.89,0,0,0,68.92-84.91,231.33,231.33,0,0,0-68.92-11.72Z"/><path class="cls-2" d="M217.92,244.34v10.11a245,245,0,0,1,74.38,12.77,229.31,229.31,0,0,0,15.2-69.62A110.92,110.92,0,0,0,217.92,244.34Z"/><path class="cls-3" d="M302.75,77.07a28.07,28.07,0,0,0-27.67,25.14c-.09.93-.28,1.84-.28,2.8a27.17,27.17,0,0,0,6.77,18,186.39,186.39,0,0,1,24.23-1.63h1.41c5.83,0,11.59.39,17.26,1a28,28,0,0,0-21.72-45.31Z"/><path class="cls-4" d="M27.94,162.83l-.22,0a27.94,27.94,0,0,0,.22,55.88l2.07-.21a27.84,27.84,0,0,0,25.17-21.66,28.4,28.4,0,0,0,.71-6.08,27.71,27.71,0,0,0-1.28-7.88A27.83,27.83,0,0,0,27.94,162.83Z"/><path class="cls-3" d="M101.63,277.08a27.34,27.34,0,0,0,.43,4.27,27.65,27.65,0,0,0,5.57,12.85,28.09,28.09,0,0,0,11.24,8.68,185.5,185.5,0,0,1,9.59-53.65,27.33,27.33,0,0,0-6.75,1.15,27.83,27.83,0,0,0-20.08,26.7Z"/><path class="cls-4" d="M549.24,504.3l-93.93-93.91a179.6,179.6,0,0,0,31.55-100.53C487.6,210,407,128.21,307.17,127.47H305.8c-99.07,0-180.28,80.62-181,179.71a181,181,0,0,0,179.7,182.37h1.37a180.09,180.09,0,0,0,94.86-26.89l94,94-5.33-5.33,53.83-53Zm-241-78.76h-.92A117,117,0,0,1,191.2,307.66c.49-64,53-116.14,117-116.14h.88A117.16,117.16,0,0,1,425.22,309.41C424.73,373.44,372.25,425.54,308.24,425.54Z"/><path class="cls-3" d="M504.63,566.56l12.84,13c3.73,3.8,8.93,5.81,15,5.81h0c9.77,0,20.94-5.27,29.89-14.1,15.09-14.87,19-34.53,8.95-44.75l-17.13-17.38,0,0,.21.2,0,0,8.28,8.4-53.81,53Z"/><polygon class="cls-3" points="504.37 566.28 500.3 562.22 500.3 562.23 504.37 566.28"/><polygon class="cls-2" points="554.13 509.19 549.24 504.3 543.23 498.3 489.4 551.31 494.73 556.64 500.3 562.22 504.37 566.28 504.63 566.56 508.85 570.78 562.65 517.77 554.37 509.37 554.34 509.39 554.13 509.19"/></g></svg>