<svg id="Layer_1" data-name="Layer 1" xmlns="http://www.w3.org/2000/svg" viewBox="0 0 577 578"><defs><style>.cls-1{fill:#020303;}.cls-2{fill:#68bee0;}.cls-3{fill:#96d48e;}.cls-4{fill:#96d58e;}.cls-5{fill:#87bf80;}.cls-6{fill:#5eaaca;}.cls-7{fill:#86be7f;}.cls-8{fill:#95d38d;}.cls-9{fill:#5da9c9;}.cls-10{fill:#66badc;}.cls-11{fill:#020202;}.cls-12{fill:#fefefe;}.cls-13{fill:#4cb8e7;}.cls-14{fill:#faf0c9;}.cls-15{fill:#010203;}.cls-16{fill:#bde5f2;}</style></defs><path class="cls-1" d="M311.75,524.77h-37.5c-.69-1.59-2.16-.9-3.26-1a238.56,238.56,0,0,1-118.58-45.18c-5.23-3.81-5.83-5.74-3.55-11.86,4.29-3.29,8.12-2.34,12.25.7a222.36,222.36,0,0,0,72.71,35.21c3.1.86,4.49.57,5.29-2.73,1.39-5.73,3.14-11.38,4.74-17.07a270.87,270.87,0,0,0,8.75-52.06c.93-12.3-4.45-21-15.18-26.67-8.41-4.42-17.56-6.29-26.83-7.78-11-1.76-22.11-1.49-33.12-2.74-17.48-2-24.71-13-19.68-30a86.55,86.55,0,0,1,4.77-11.67,51.77,51.77,0,0,0,4.38-13.28c1.19-7.2-1.4-11.4-8.36-13.43-11.9-3.48-16.5-1.78-23.11,8.91-5.13,8.3-12.39,11.82-22.09,10.92-13.9-1.29-22.85-9.07-28.46-21.27-4-8.63-5.51-17.86-6.07-27.25-1-16.66.39-33.09,6-48.92,3.17-9,10.32-13.62,19.75-13.6,15.28,0,28.4,12.6,29.16,27.92.18,3.51.25,7,2.54,10.67,1.13-16.75,1.13-16.75,11.34-29.61A150.67,150.67,0,0,0,159,226.38c3.06-5.13,5.05-5.84,10.82-4.28,4.08,4.58,4.24,6.33,1.18,11.62a137,137,0,0,1-15.38,21.76c-4.1,4.69-6,9.65-4.81,15.86a17.87,17.87,0,0,1-.33,6.5c-1.87,9.71-11.92,13.93-20.2,8.52a22.06,22.06,0,0,1-8.7-11.86A43.1,43.1,0,0,1,119.7,263c-.39-6.79-4-11.36-10.14-13.88-6.66-2.73-10.51-1-12.46,5.9a120.34,120.34,0,0,0-4.29,39.37c.53,10,1.9,19.91,7.72,28.54,3.81,5.64,9.17,8.13,15.92,8.2,5.89.05,7.2-4.8,9.42-8.53,3.88-6.51,9-11.31,16.72-12.3a45.71,45.71,0,0,1,23.91,2.88c10.69,4.49,16.23,14.53,14.59,26.09a64.29,64.29,0,0,1-5.62,18.25c-1.91,4.09-3.92,8.16-4.9,12.61-1.23,5.52.18,8.05,5.8,9a128.63,128.63,0,0,0,14.44,1.26c13.1.72,26.12,1.88,38.81,5.55,28.12,8.14,38.94,23.89,36.42,52.88-1.32,15.11-4.27,29.92-7.51,44.69-1.88,6.42-3.5,12.93-5.74,19.22-1.29,3.61-.19,4.28,3.13,4.82a229.37,229.37,0,0,0,74.91.19A222.76,222.76,0,0,0,386.55,491c1.71-.77,3.32-1.26,2.74-4-2.66-12.27-6.87-23.88-13.81-34.41C370.18,442.63,363,434,356,425.2s-14.42-17.26-20.45-26.78c-14.24-22.48-13.26-49.12,2.77-70a87.64,87.64,0,0,1,33.84-26.71A155.17,155.17,0,0,1,417,288.88c25.15-3.2,49.06-1.27,68,18.48,7.78,8.53,17.6,13.56,28.59,16.55.88.24,1.82.57,2.63-.19,1.21-1.12,1.6-10.58.39-11.94-5.25-5.89-8.63-12.85-11.8-20-3.45-7.77-6.48-15.77-11-23a82.91,82.91,0,0,0-12.09-20.47c-7.83-9.66-15.75-10.76-26.16-3.9-6.54,4.3-12.22,9.7-18.28,14.62-10.13,8.23-21,15.19-33.7,18.72-17,4.71-33.28-.75-43-13.93-14.5-19.65-8.32-58.16,25.27-66.23,13.94-3.35,28.16-3.72,42.31-4.35,7.35-.32,12.07-3.45,15.47-9.4,7.7-13.5,9.95-28.1,8.37-43.38a22.44,22.44,0,0,0-3.77-11c-1-1.37-2.15-3.32-3.92-2.8-1.54.45-1.21,2.65-1.33,4.17-.35,4.73.92,9.3,1.4,14,1.58,15.26-8.12,30.28-22.07,34.1-22.31,6.11-42-10.84-39.87-34.2,1.77-19,9.63-35.66,19.83-51.4,3.29-5.08,3.36-5.08-2.17-8Q335.54,51.5,263.25,60.94a222.41,222.41,0,0,0-93,34.66c-3.24,2.1-4.19,3.45-1.62,7a140.9,140.9,0,0,1,9.72,16c13.13,24.28,18,49.67,9.81,76.71-1.9,6.24-3.51,7.33-10.19,6.89-4.05-2.78-4.76-6.36-3.3-11a74.82,74.82,0,0,0,2.48-34.25c-2.72-17.7-11.13-32.92-20.75-47.63-1.57-2.4-2.6-1.75-4.29-.37A203.68,203.68,0,0,0,122,138.35C68.14,204.61,54.92,278.47,80.67,359.7c1.79,5.67,4.77,7.83,10.25,8.7A225.83,225.83,0,0,1,117,373.77c18.22,5.18,22.75,22.39,9.92,36.29a46.72,46.72,0,0,1-10,8.43c-2.81,1.7-3.28,3-1,5.55,4.63,5.07,9,10.41,13.52,15.54,1.69,1.9,3.24,3.79,3.58,6.41a11.4,11.4,0,0,1-2.31,5.51c-4.25,2.68-7.74,1.87-11.16-1.79q-51.42-55.05-63-129.45c-.81-5.27-.42-10.75-2.62-15.79V265.09c1.46-.53.87-1.83,1-2.8a247.63,247.63,0,0,1,6-35.48C90.83,109,200.7,32.68,321.81,46.64c69.17,8,124.24,41.29,166,96.78,4.2,5.58,4.1,7.18-.16,12.77-5.28,1.52-8.83-.59-11.72-5a61.07,61.07,0,0,0-9.7-11.82c.16,2.08.26,3.46.37,4.83-.08,3.9.08,7.82-.28,11.7-1.3,14-4.69,27.36-13.13,38.94-5,6.83-11.42,11.5-20.19,12.08-6.23.42-12.47.61-18.69,1.12-10.4.85-20.93,1.1-30.72,5.34-17.34,7.49-22.09,32.89-8.51,45.56,7.84,7.3,17,7.63,26.69,4.62,12.83-4,23-12.3,33-20.77,6.08-5.13,12.07-10.39,19.4-13.77,12-5.55,23.58-3.79,33.38,5.1,1.38,1.25,2.73,2.54,4.09,3.81,12,15.38,19.28,33.41,27.76,50.82a7.54,7.54,0,0,0,.38-2.82,224.38,224.38,0,0,0-22-98.49c-2.88-6-2-9,3.39-11.88,5-1.12,7.4,1.75,9.31,5.78,22.24,47,28.67,96.26,19.36,147.33C511.59,429.23,430.61,507,329,522.23,323.23,523.1,317.33,522.85,311.75,524.77ZM481.63,323.71c-2.71-2.57-5.55-5-8.11-7.74-7.65-8.1-17.27-12-28.07-13.45-18.35-2.48-36,1-53.37,6.44C376,314,361.8,322,350.84,335.13c-9.58,11.45-13,24.48-10.15,39.26,2.12,10.83,8.28,19.39,14.87,27.71,11.12,14,22.75,27.72,32.29,43,5.88,10.68,11.25,21.58,13.85,33.58.79,3.64,1.76,4,5,2.09a229.69,229.69,0,0,0,67.87-60.23,220.06,220.06,0,0,0,38-78.69c.46-1.8,1.52-3.46-1.55-4.13C500.14,335.3,490.57,330.15,481.63,323.71ZM439.41,112.09c-6.32-5.49-12.79-10.12-19.26-14.75-2.18-1.56-3.1-.85-4.38,1-6.49,9.61-12.07,19.7-15.7,30.74-2.34,7.13-4.37,14.39-3.4,22,1.23,9.56,7.2,14.52,17.36,14.65,8.21.12,14.31-5.4,16-14.18.79-4.27-.13-8.37-.56-12.55C428.35,128.68,428.1,118.53,439.41,112.09ZM90.18,382.87c3.11,5.71,5.73,10.77,8.6,15.68,2.08,3.56,3.78,9.73,7,9.69,4.54-.07,8.27-4.86,11.62-8.56.21-.23.39-.48.58-.73,3.6-4.8,2.79-8.85-2.89-11C107.35,385,99.14,384.15,90.18,382.87Z"/><path class="cls-2" d="M481.77,248.29c-7.85-9.66-15.75-10.77-26.18-3.9-6.54,4.3-12.21,9.7-18.26,14.62-10.14,8.23-21,15.2-33.71,18.72-17,4.71-33.29-.75-43-13.93-14.49-19.65-8.33-58.16,25.27-66.23,13.93-3.36,28.16-3.72,42.31-4.35,7.34-.32,12.07-3.46,15.46-9.41,7.71-13.49,10-28.1,8.37-43.37a22.46,22.46,0,0,0-3.76-10.95c-1-1.38-2.15-3.34-3.92-2.81-1.54.45-1.21,2.64-1.33,4.17-.35,4.73.92,9.3,1.4,14,1.59,15.26-8.12,30.28-22.08,34.1-22.3,6.12-42-10.84-39.86-34.2,1.77-19,9.63-35.66,19.83-51.41,3.29-5.07,3.37-5.07-2.17-8Q335.55,51.5,263.25,60.94a222.45,222.45,0,0,0-93,34.66c-3.23,2.1-4.18,3.44-1.61,7a139,139,0,0,1,9.72,16c13.13,24.28,18,49.67,9.81,76.72-1.9,6.24-3.51,7.31-10.19,6.89-1.75,7-6,13.05-8.19,19.93,4.07,4.59,4.23,6.33,1.18,11.62a135.89,135.89,0,0,1-15.38,21.76c-4.09,4.68-6,9.65-4.81,15.86a18.07,18.07,0,0,1-.32,6.5c-1.88,9.71-11.93,13.94-20.21,8.51a22,22,0,0,1-8.7-11.84A43.24,43.24,0,0,1,119.7,263c-.38-6.79-4-11.35-10.13-13.88-6.67-2.72-10.53-.94-12.47,5.9a119.62,119.62,0,0,0-4.28,39.38c.52,10,1.89,19.91,7.71,28.54,3.8,5.64,9.18,8.13,15.92,8.2,5.88.05,7.2-4.8,9.42-8.54,3.88-6.5,9-11.3,16.71-12.29a45.83,45.83,0,0,1,23.92,2.87c10.69,4.5,16.24,14.54,14.6,26.1a64.37,64.37,0,0,1-5.63,18.24c-1.92,4.1-3.92,8.17-4.9,12.62-1.23,5.52.18,8.06,5.8,9a131,131,0,0,0,14.44,1.25c13.1.73,26.12,1.88,38.81,5.55,28.12,8.13,38.94,23.88,36.42,52.87-1.31,15.11-4.27,29.92-7.51,44.69,34.59-.27,67.83-6.7,99.31-21.48a184.8,184.8,0,0,0,17.64-9.4C370.18,442.62,363,434,356,425.2s-14.41-17.27-20.44-26.78c-14.24-22.47-13.26-49.12,2.78-70a87.56,87.56,0,0,1,33.83-26.72A155.17,155.17,0,0,1,417,288.88c25.15-3.19,49.06-1.28,68,18.48,3.35-2.94,3.11-7.24,3.8-11,1.59-8.65,2.66-17.4,4-26.11.09-.52.67-1,1-1.45A82.53,82.53,0,0,0,481.77,248.29Zm-243-89.84c-.36,3.81-2.74,6-6.41,6.23-3.48.25-6.21-1.48-7-5a34,34,0,0,1-.05-14.38c.76-3.7,3.58-5.39,7.35-5a6.24,6.24,0,0,1,6.09,6,56,56,0,0,1,0,6.08h0C238.79,154.4,239,156.44,238.75,158.45Zm110.37.1c-.19-2,0-4.05,0-6.08s-.16-4.08,0-6.08a6.25,6.25,0,0,1,6-6.08c3.74-.4,6.6,1.23,7.41,4.93a33.57,33.57,0,0,1,0,14.39c-.82,3.69-3.69,5.44-7.38,5A6.33,6.33,0,0,1,349.12,158.55Z"/><path class="cls-3" d="M178,202.16c-1.75,7.05-6,13.07-8.19,19.94-5.77-1.56-7.76-.85-10.82,4.28A150.67,150.67,0,0,1,147.62,243c-10.21,12.86-10.21,12.86-11.34,29.61-2.29-3.63-2.36-7.16-2.54-10.67-.76-15.32-13.88-27.89-29.16-27.92-9.43,0-16.58,4.62-19.75,13.6-5.59,15.83-7,32.26-6,48.92.56,9.39,2.11,18.62,6.07,27.25,5.61,12.2,14.56,20,28.46,21.27,9.7.9,17-2.62,22.09-10.92,6.61-10.69,11.21-12.39,23.11-8.91,7,2,9.55,6.23,8.36,13.43a51.77,51.77,0,0,1-4.38,13.28,86.55,86.55,0,0,0-4.77,11.67c-5,16.93,2.2,28,19.68,30,11,1.25,22.14,1,33.12,2.74,9.27,1.49,18.42,3.36,26.83,7.78,10.73,5.64,16.11,14.37,15.18,26.67a270.87,270.87,0,0,1-8.75,52.06c-4.63-.41-9.31-.59-13.91-1.28-25.84-3.86-50.68-11-74-23-7.73-4-15.26-8.36-22.88-12.55-.34-2.62-1.89-4.51-3.58-6.41-4.56-5.13-8.89-10.47-13.52-15.54-2.32-2.54-1.85-3.85,1-5.55a46.72,46.72,0,0,0,10-8.43c12.83-13.9,8.3-31.11-9.92-36.29a225.83,225.83,0,0,0-26.08-5.37c-5.48-.87-8.46-3-10.25-8.7C54.92,278.47,68.14,204.61,122,138.35a203.68,203.68,0,0,1,30.07-29.44c1.69-1.38,2.72-2,4.29.37,9.62,14.71,18,29.93,20.75,47.63a74.82,74.82,0,0,1-2.48,34.25C173.2,195.8,173.91,199.38,178,202.16Z"/><path class="cls-4" d="M387.85,445.06c-9.54-15.24-21.17-28.91-32.29-43-6.59-8.32-12.75-16.88-14.87-27.71-2.89-14.78.57-27.81,10.15-39.26C361.8,322,376,314,392.08,309c17.41-5.43,35-8.92,53.37-6.44,10.8,1.47,20.42,5.35,28.07,13.45,2.56,2.71,5.4,5.17,8.11,7.74-1.26,3.51-2.46,7-3.79,10.52a229.78,229.78,0,0,1-26.48,49.63,237,237,0,0,1-42.81,46.35C402,435.66,395.38,441,387.85,445.06Z"/><path class="cls-5" d="M387.85,445.06c7.53-4.05,14.19-9.4,20.7-14.85a237,237,0,0,0,42.81-46.35,229.78,229.78,0,0,0,26.48-49.63c1.33-3.48,2.53-7,3.79-10.52,8.94,6.44,18.51,11.59,29.35,14,3.07.67,2,2.33,1.55,4.13a220.06,220.06,0,0,1-38,78.69,229.69,229.69,0,0,1-67.87,60.23c-3.21,1.89-4.18,1.55-5-2.09C399.1,466.64,393.73,455.74,387.85,445.06Z"/><path class="cls-3" d="M491.71,237.92c-1.36-1.27-2.71-2.56-4.09-3.81-9.8-8.89-21.36-10.65-33.38-5.1-7.33,3.38-13.32,8.64-19.4,13.77-10,8.47-20.2,16.77-33,20.77-9.66,3-18.85,2.68-26.69-4.62-13.58-12.67-8.83-38.07,8.51-45.56,9.79-4.24,20.32-4.49,30.72-5.34,6.22-.51,12.46-.7,18.69-1.12,8.77-.58,15.21-5.25,20.19-12.08,8.44-11.58,11.83-24.94,13.13-38.94.36-3.88.2-7.8.28-11.7,1.34.05,1.76,1.11,2.25,2.08,3,5.8,5.63,11.76,8.06,17.82A242,242,0,0,1,492.47,227C492.88,230.6,493.66,234.42,491.71,237.92Z"/><path class="cls-6" d="M258.53,483.5c34.59-.28,67.83-6.71,99.31-21.49a181.41,181.41,0,0,0,17.64-9.4c6.94,10.53,11.15,22.14,13.81,34.41.58,2.69-1,3.18-2.74,4a222.76,222.76,0,0,1-55.72,16.76,229.37,229.37,0,0,1-74.91-.19c-3.32-.54-4.42-1.21-3.13-4.82C255,496.43,256.65,489.92,258.53,483.5Z"/><path class="cls-7" d="M491.71,237.92c2-3.5,1.17-7.32.76-10.89A242,242,0,0,0,477,164.09c-2.43-6.06-5.07-12-8.06-17.82-.49-1-.91-2-2.25-2.08-.11-1.37-.21-2.75-.37-4.83a61.07,61.07,0,0,1,9.7,11.82c2.89,4.42,6.44,6.53,11.72,5,4.47,4.58,6.86,10.51,10.27,15.79.89,1.39,1.27,3.23,3.29,3.57-5.4,2.92-6.28,5.84-3.4,11.88a224.38,224.38,0,0,1,22,98.49,7.54,7.54,0,0,1-.38,2.82C511,271.33,503.75,253.3,491.71,237.92Z"/><path class="cls-8" d="M439.41,112.09c-11.31,6.44-11.06,16.59-10,27,.43,4.18,1.35,8.28.56,12.55-1.64,8.78-7.74,14.3-16,14.18-10.16-.13-16.13-5.09-17.36-14.65-1-7.63,1.06-14.89,3.4-22,3.63-11,9.21-21.13,15.7-30.74,1.28-1.88,2.2-2.59,4.38-1C426.62,102,433.09,106.6,439.41,112.09Z"/><path class="cls-7" d="M133.07,446c7.62,4.19,15.15,8.57,22.88,12.55,23.31,12,48.15,19.15,74,23,4.6.69,9.28.87,13.91,1.28-1.6,5.69-3.35,11.34-4.74,17.07-.8,3.3-2.19,3.59-5.29,2.73a222.36,222.36,0,0,1-72.71-35.21c-4.13-3-8-4-12.25-.7-6.75-4.23-12-10.24-18.1-15.22A11.4,11.4,0,0,0,133.07,446Z"/><path class="cls-9" d="M485,307.36c3.34-2.95,3.1-7.24,3.8-11,1.59-8.66,2.65-17.41,4-26.12.08-.52.67-1,1-1.45,4.51,7.27,7.54,15.27,11,23,3.17,7.13,6.55,14.09,11.8,20,1.21,1.36.82,10.82-.39,11.94-.81.76-1.75.43-2.63.19C502.63,320.92,492.81,315.89,485,307.36Z"/><path class="cls-10" d="M90.18,382.87c9,1.28,17.17,2.14,24.88,5.07,5.68,2.16,6.49,6.21,2.89,11-.19.25-.37.5-.58.73-3.35,3.7-7.08,8.49-11.62,8.56-3.19,0-4.89-6.13-7-9.69C95.91,393.64,93.29,388.58,90.18,382.87Z"/><path class="cls-1" d="M293.62,190.57c-4.52,0-9.06.27-13.55-.06-6.15-.44-10.13-4.25-10.73-10.36a69.43,69.43,0,0,1,.38-19.58c2.1-11.28,13.09-19.91,24.65-19.65,12,.27,22.35,9.19,24.08,20.85a79.74,79.74,0,0,1,.29,17.74c-.5,6.78-4.64,10.68-11.56,11.1-4.5.27-9,0-13.56,0Zm.14-14.16c11.09,0,11.09,0,10.72-10.7C304.26,159.4,300,155,294,155s-10.27,4.39-10.48,10.71C283.13,176.41,283.13,176.41,293.76,176.41Z"/><path class="cls-1" d="M238.79,152.37c0,2,.16,4.07,0,6.08-.37,3.82-2.76,6-6.42,6.23-3.49.26-6.21-1.48-7-5a34,34,0,0,1-.05-14.38c.76-3.7,3.58-5.39,7.35-5a6.24,6.24,0,0,1,6.09,6,53.57,53.57,0,0,1,0,6.08Z"/><path class="cls-1" d="M349.09,152.47a58.88,58.88,0,0,1,0-6.09,6.23,6.23,0,0,1,6-6.07c3.76-.4,6.61,1.23,7.42,4.93a33.26,33.26,0,0,1,0,14.39c-.82,3.69-3.69,5.44-7.38,5a6.36,6.36,0,0,1-6.05-6.1C348.94,156.54,349.09,154.5,349.09,152.47Z"/><path class="cls-11" d="M237.39,565.49c-.13-.67-.76-.66-1.2-.76-4.3-1.08-7.62-3.65-10.68-6.72q-32.59-32.64-65.2-65.27c-1.29-1.3-2.15-1.54-3.77-.51A99.75,99.75,0,0,1,98.45,508,102.91,102.91,0,0,1,8,446.13,99.86,99.86,0,0,1-.19,397.94a102.78,102.78,0,0,1,55.1-83.34,101.73,101.73,0,0,1,107,7.86,101.38,101.38,0,0,1,37.84,52.08A98.9,98.9,0,0,1,203.91,417a100.14,100.14,0,0,1-15.16,43c-1,1.59-.83,2.46.48,3.77,21,20.91,41.91,41.93,63,62.82,4.34,4.3,8.17,8.77,9.82,14.78v7.69c-.81.28-.76,1.09-.93,1.68a20.37,20.37,0,0,1-8,11.14c-2.54,1.87-5.62,2.46-8.47,3.59ZM100.28,497.76c49.67,1,92-38.18,93.92-88.67a92.22,92.22,0,1,0-93.92,88.67Zm151.46,47.57a10.89,10.89,0,0,0-3.36-8q-21.91-21.93-43.81-43.88c-1.23-1.24-1.8-.88-2.74.19a97.41,97.41,0,0,1-11.42,11.38c-1.69,1.39-1.27,2.16.06,3.48q21.27,21.13,42.43,42.36a23.47,23.47,0,0,0,2.46,2.23,9.66,9.66,0,0,0,10.61,1A9.89,9.89,0,0,0,251.74,545.33Zm-70.32-46c.38-.32.71-.57,1-.85A157.89,157.89,0,0,0,195,486.07c.83-.92.82-1.39-.06-2.25-4.15-4.05-8.27-8.15-12.31-12.31-1-1-1.55-.81-2.36.16a95,95,0,0,1-12.13,12.1c-1.14.94-.88,1.48,0,2.36,4.08,4,8.09,8.08,12.14,12.12C180.6,498.6,181,498.94,181.42,499.36Z"/><path class="cls-12" d="M244.57,565.49c2.85-1.13,5.93-1.72,8.47-3.59a20.37,20.37,0,0,0,8-11.14c.17-.59.12-1.4.93-1.68,0,5,0,10.09,0,15.13,0,1.1-.21,1.33-1.31,1.31C255.33,565.45,250,565.49,244.57,565.49Z"/><path class="cls-13" d="M100.28,497.76a92.23,92.23,0,1,1,93.92-88.67C192.32,459.58,150,498.79,100.28,497.76ZM20,405.51c0,45,36.83,81.93,81.94,82s81.91-36.7,82.11-81.88c.21-45-37-82.23-82.07-82.17S20,360.46,20,405.51Z"/><path class="cls-13" d="M251.74,545.33a9.89,9.89,0,0,1-5.77,8.81,9.66,9.66,0,0,1-10.61-1,23.47,23.47,0,0,1-2.46-2.23q-21.21-21.2-42.43-42.36c-1.33-1.32-1.75-2.09-.06-3.48a97.41,97.41,0,0,0,11.42-11.38c.94-1.07,1.51-1.43,2.74-.19q21.85,22,43.81,43.88A10.89,10.89,0,0,1,251.74,545.33Z"/><path class="cls-14" d="M181.42,499.36c-.45-.42-.82-.76-1.17-1.11-4.05-4-8.06-8.11-12.14-12.12-.9-.88-1.16-1.42,0-2.36a95,95,0,0,0,12.13-12.1c.81-1,1.34-1.2,2.36-.16,4,4.16,8.16,8.26,12.31,12.31.88.86.89,1.33.06,2.25a157.89,157.89,0,0,1-12.51,12.44C182.13,498.79,181.8,499,181.42,499.36Z"/><path class="cls-15" d="M20,405.51c0-45.05,36.91-81.94,82-82s82.28,37.17,82.07,82.17c-.2,45.18-37.13,82-82.11,81.88S20,450.53,20,405.51ZM102,333.76c-39.47.11-71.71,32.4-71.68,71.79A72,72,0,0,0,102,477.3c39.47.05,72-32.53,71.81-71.92S141.3,333.65,102,333.76Z"/><path class="cls-16" d="M102,333.76c39.35-.11,71.67,32.1,71.86,71.62s-32.34,72-71.81,71.92a72,72,0,0,1-71.73-71.75C30.24,366.16,62.48,333.87,102,333.76ZM159.81,385a28.48,28.48,0,0,0-1-3.07Q147.54,356,120.71,347A57.77,57.77,0,0,0,102.87,344c-3.47,0-5.86,2-5.93,5s2.23,5,5.75,5.23c.34,0,.68,0,1,0Q128,355.61,143,374.77a56.06,56.06,0,0,1,7,12.42,4.83,4.83,0,0,0,6,3A5.23,5.23,0,0,0,159.81,385Zm3.72,20.46a5.1,5.1,0,1,0-5,5.14A5.27,5.27,0,0,0,163.53,405.48Z"/><path class="cls-15" d="M159.81,385a5.23,5.23,0,0,1-3.82,5.19,4.83,4.83,0,0,1-6-3,56.06,56.06,0,0,0-7-12.42q-15-19.12-39.25-20.47c-.34,0-.68,0-1,0-3.52-.19-5.81-2.27-5.75-5.23s2.46-5.05,5.93-5A57.77,57.77,0,0,1,120.71,347q26.83,9,38.12,35A28.48,28.48,0,0,1,159.81,385Z"/><path class="cls-15" d="M163.53,405.48a5.1,5.1,0,1,1-5.08-5.05A5.27,5.27,0,0,1,163.53,405.48Z"/></svg>